<?xml version="1.0" encoding="UTF-8"?>
<!DOCTYPE svg PUBLIC "-//W3C//DTD SVG 1.1//EN" "http://www.w3.org/Graphics/SVG/1.1/DTD/svg11.dtd">
<!-- Creator: CorelDRAW X7 -->
<?xml-stylesheet href="thanhngang.css" type="text/css"?>
<svg xmlns="http://www.w3.org/2000/svg" xml:space="preserve" width="8.78333in" height="0.666661in" version="1.1" style="shape-rendering:geometricPrecision; text-rendering:geometricPrecision; image-rendering:optimizeQuality; fill-rule:evenodd; clip-rule:evenodd"
viewBox="0 0 8783 667"
 xmlns:xlink="http://www.w3.org/1999/xlink">
 <g id="Layer_x0020_1">
  <metadata id="CorelCorpID_0Corel-Layer"/>
  <path id="Backup_of_thanhngang.cdr" class="fil0 str0" d="M2689 371l-1399 0m1480 273l3209 7 -94 -328 92 -288 -3207 2 110 307 -110 300zm-78 -354l-1399 0 1399 0zm-1 41l-2694 0 2694 0zm3396 39l1400 0 -1400 0zm-3 -81l1400 0 -1400 0zm1 41l2695 0 -2695 0zm-393 -101l24 74 79 0 -64 46 25 75 -64 -47 -63 47 24 -75 -63 -46 78 0 24 -74zm-2638 14l24 75 79 0 -64 46 25 74 -64 -46 -63 46 24 -74 -63 -46 78 0 24 -75z"/>
 </g>
</svg>
